<svg xmlns="http://www.w3.org/2000/svg" width="114" height="24" fill="none" viewBox="0 0 114 24">
    <path stroke="#fff" stroke-linecap="round" stroke-miterlimit="10" stroke-width="3" d="M96.311 21.611V10.432a7.595 7.595 0 0 1 2.184-5.494 7.683 7.683 0 0 1 10.94 0 7.617 7.617 0 0 1 2.185 5.494v11.18"/>
    <path stroke="#fff" stroke-linecap="round" stroke-linejoin="round" stroke-width="3" d="M82.688 21.612c-5.206 0-8.429-4.2-8.429-9.384 0-5.183 3.237-9.4 8.429-9.4 5.191 0 8.428 4.203 8.428 9.4H74.583"/>
    <path stroke="#fff" stroke-linecap="round" stroke-miterlimit="10" stroke-width="3" d="M53.627 21.611V10.432c0-2.021.806-3.96 2.241-5.389a7.67 7.67 0 0 1 5.412-2.232 7.67 7.67 0 0 1 5.411 2.232 7.605 7.605 0 0 1 2.242 5.39V21.61"/>
    <path stroke="#FD0725" stroke-linecap="round" stroke-linejoin="round" stroke-width="3" d="M37.772 3.829a6.386 6.386 0 0 0-8.522.464 6.325 6.325 0 0 0-.405 8.49l5.077 5.072.337.336 3.439 3.424 3.51-3.317"/>
    <path stroke="#fff" stroke-linecap="round" stroke-linejoin="round" stroke-width="3" d="M42.215 15.058c3.517 0 6.369-2.839 6.369-6.341 0-3.503-2.852-6.342-6.369-6.342s-6.368 2.84-6.368 6.342 2.851 6.341 6.368 6.341z"/>
    <path stroke="#fff" stroke-linecap="round" stroke-miterlimit="10" stroke-width="3" d="M23.268 2.842h-8.876a4.67 4.67 0 0 0-3.279 1.4 4.63 4.63 0 0 0-1.32 3.3 4.615 4.615 0 0 0 1.32 3.3 4.652 4.652 0 0 0 3.279 1.4l4.268.036c1.178.1 2.277.636 3.077 1.504a4.689 4.689 0 0 1 0 6.36 4.727 4.727 0 0 1-3.077 1.503H9.793M2.38 6.713v14.899"/>
    <path fill="#fff" d="M2.5 4a1.5 1.5 0 1 0 0-3 1.5 1.5 0 0 0 0 3z"/>
</svg>
