<svg xmlns="http://www.w3.org/2000/svg" width="104" height="52" fill="none" viewBox="0 0 104 52">
    <path fill="#fff" fill-rule="evenodd" d="M5.473.129h.818v7.507h-.67L.818 1.48v6.156H0V.129h.786l4.687 6.016V.13zM12.062 7.764c-2.264 0-3.783-1.79-3.783-3.871C8.279 1.813 9.819 0 12.083 0c2.263 0 3.783 1.79 3.783 3.871s-1.54 3.893-3.804 3.893zm0-6.981c-1.7 0-2.912 1.372-2.912 3.088s1.233 3.11 2.933 3.11c1.7 0 2.912-1.372 2.912-3.088S13.762.783 12.062.783zM22.976 7.636l-2.157-2.917h-2.126v2.917h-.839V.129h3.199c1.636 0 2.688.89 2.688 2.24 0 1.256-.85 1.985-2.019 2.2l2.285 3.067h-1.031zM20.989.912h-2.296v3.045h2.285c1.116 0 1.913-.579 1.913-1.555 0-.933-.701-1.49-1.902-1.49zM29.203 7.764c-2.337 0-3.783-1.715-3.783-3.871C25.42 1.823 26.92 0 29.15 0c1.254 0 2.03.364 2.774.997l-.542.644c-.574-.504-1.212-.858-2.264-.858-1.647 0-2.826 1.405-2.826 3.088 0 1.802 1.137 3.132 2.943 3.132.85 0 1.637-.333 2.147-.75V4.385h-2.264v-.761h3.072v2.992a4.484 4.484 0 0 1-2.986 1.147zM39.672.9h-4.538v2.564h4.06v.772h-4.06v2.628h4.59v.772h-5.43V.129h5.378V.9zM44.294 3.475c1.658.365 2.423.976 2.423 2.134 0 1.298-1.062 2.134-2.54 2.134-1.179 0-2.146-.397-3.039-1.201l.521-.622c.776.708 1.52 1.062 2.55 1.062 1 0 1.658-.526 1.658-1.287 0-.708-.372-1.105-1.934-1.437-1.71-.376-2.497-.933-2.497-2.177 0-1.201 1.03-2.06 2.444-2.06 1.084 0 1.86.312 2.614.923l-.489.654c-.69-.568-1.38-.815-2.146-.815-.967 0-1.584.536-1.584 1.222 0 .72.383 1.116 2.02 1.47zM.075 10.047h.839v7.507h-.84v-7.507zM5.887 17.554H3.305v-7.507h2.582c2.338 0 3.953 1.62 3.953 3.743 0 2.123-1.615 3.764-3.953 3.764zm0-6.724H4.145v5.941h1.742c1.881 0 3.082-1.287 3.082-2.96s-1.2-2.981-3.082-2.981zM16.95 17.554l-2.157-2.917h-2.125v2.917h-.84v-7.507h3.199c1.636 0 2.688.89 2.688 2.241 0 1.255-.85 1.985-2.019 2.199l2.285 3.067h-1.03zm-1.987-6.724h-2.295v3.046h2.284c1.116 0 1.913-.58 1.913-1.555 0-.933-.701-1.491-1.902-1.491zM25.101 10.82h-4.537v2.562h4.06v.772h-4.06v2.628h4.59v.772h-5.43v-7.507h5.377v.772zM29.873 17.554h-.85V10.83h-2.497v-.783h5.844v.783h-2.497v6.724zM36.972 17.554h-.85V10.83h-2.497v-.783h5.844v.783h-2.497v6.724zM43.764 13.393c1.658.365 2.423.976 2.423 2.134 0 1.298-1.063 2.134-2.54 2.134-1.18 0-2.146-.396-3.039-1.2l.52-.623c.777.708 1.52 1.062 2.551 1.062 1 0 1.658-.525 1.658-1.287 0-.708-.372-1.105-1.934-1.437-1.711-.376-2.497-.933-2.497-2.177 0-1.201 1.03-2.06 2.444-2.06 1.084 0 1.86.312 2.614.923l-.489.654c-.69-.568-1.381-.815-2.147-.815-.966 0-1.583.536-1.583 1.223 0 .718.383 1.115 2.02 1.469zM53.456 10.83h-4.505v2.681h4.027v.772h-4.027v3.271h-.84v-7.507h5.345v.783zM58.59 17.683c-2.263 0-3.783-1.791-3.783-3.872 0-2.08 1.541-3.893 3.805-3.893 2.263 0 3.783 1.791 3.783 3.872 0 2.08-1.541 3.893-3.805 3.893zm0-6.982c-1.7 0-2.911 1.373-2.911 3.089s1.232 3.11 2.933 3.11c1.7 0 2.911-1.373 2.911-3.089s-1.232-3.11-2.933-3.11zM69.505 17.554l-2.158-2.917h-2.125v2.917h-.84v-7.507h3.2c1.636 0 2.688.89 2.688 2.241 0 1.255-.85 1.985-2.02 2.199l2.285 3.067h-1.03zm-1.988-6.724h-2.295v3.046h2.285c1.115 0 1.913-.58 1.913-1.555 0-.933-.702-1.491-1.903-1.491zM77.868 11.924c0 .987-.595 1.49-1.18 1.748.882.268 1.594.783 1.594 1.823 0 1.298-1.073 2.06-2.698 2.06h-3.305v-7.508h3.166c1.467 0 2.423.73 2.423 1.877zm-.85.118c0-.751-.584-1.234-1.647-1.234h-2.263v2.585h2.2c1.009 0 1.71-.461 1.71-1.351zm.415 3.4c0-.826-.68-1.298-1.977-1.298h-2.349v2.649h2.498c1.126 0 1.828-.504 1.828-1.351zM86.242 14.348c0 2.187-1.243 3.324-3.103 3.324-1.838 0-3.092-1.137-3.092-3.26v-4.365h.84v4.311c0 1.62.85 2.531 2.274 2.531 1.37 0 2.242-.836 2.242-2.477v-4.365h.84v4.3zM93.915 10.047h.818v7.507h-.669l-4.803-6.156v6.156h-.819v-7.507h.787l4.686 6.017v-6.017zM99.633 17.554h-2.582v-7.507h2.582c2.338 0 3.953 1.62 3.953 3.743 0 2.123-1.615 3.764-3.953 3.764zm0-6.724H97.89v5.941h1.743c1.881 0 3.082-1.287 3.082-2.96s-1.201-2.981-3.082-2.981zM.011 22.365h28.282v4.656H.01v-4.656zM47.036 22.365h56.622v4.656H47.036v-4.656zM32.877 22.365h9.352v4.656h-9.352v-4.656zM20.763 44.839c0 3.744-3.008 6.78-6.719 6.78-3.71 0-6.718-3.036-6.718-6.78 0-3.746 3.008-6.781 6.718-6.781 3.711 0 6.719 3.035 6.719 6.78zm-6.719-5.651c-3.092 0-5.598 2.53-5.598 5.65 0 3.12 2.506 5.65 5.598 5.65 3.093 0 5.6-2.53 5.6-5.65 0-3.12-2.507-5.65-5.6-5.65zM35.32 44.839c0 3.744-3.008 6.78-6.719 6.78-3.71 0-6.718-3.036-6.718-6.78 0-3.746 3.008-6.781 6.718-6.781 3.711 0 6.719 3.035 6.719 6.78zM28.6 39.188c-3.091 0-5.598 2.53-5.598 5.65 0 3.12 2.506 5.65 5.598 5.65 3.093 0 5.6-2.53 5.6-5.65 0-3.12-2.507-5.65-5.6-5.65z" clip-rule="evenodd"/>
    <path fill="#fff" fill-rule="evenodd" d="M13.485 38.622c0 3.745-3.008 6.78-6.72 6.78-3.71 0-6.718-3.035-6.718-6.78 0-3.744 3.008-6.78 6.719-6.78 3.71 0 6.719 3.036 6.719 6.78zm-6.72-5.65c-3.092 0-5.598 2.53-5.598 5.65 0 3.121 2.506 5.651 5.599 5.651 3.092 0 5.599-2.53 5.599-5.65 0-3.121-2.507-5.651-5.6-5.651zM28.042 38.622c0 3.745-3.008 6.78-6.719 6.78-3.71 0-6.719-3.035-6.719-6.78 0-3.744 3.009-6.78 6.72-6.78 3.71 0 6.718 3.036 6.718 6.78zm-6.719-5.65c-3.092 0-5.599 2.53-5.599 5.65 0 3.121 2.507 5.651 5.6 5.651 3.091 0 5.598-2.53 5.598-5.65 0-3.121-2.507-5.651-5.599-5.651zM42.599 38.622c0 3.745-3.008 6.78-6.719 6.78-3.71 0-6.718-3.035-6.718-6.78 0-3.744 3.008-6.78 6.718-6.78s6.719 3.036 6.719 6.78zm-6.719-5.65c-3.092 0-5.598 2.53-5.598 5.65 0 3.121 2.506 5.651 5.598 5.651s5.599-2.53 5.599-5.65c0-3.121-2.507-5.651-5.599-5.651z" clip-rule="evenodd"/>
    <path fill="#fff" fill-rule="evenodd" d="M7.353 45.446a6.866 6.866 0 0 1 .006-1.283l1.16-.24a5.779 5.779 0 0 0-.06 1.319l-1.106.204zM21.906 45.402a6.834 6.834 0 0 1 .006-1.202l1.16-.249a5.74 5.74 0 0 0-.058 1.258l-.506.265-.602-.072zm8.473-5.923c-.391-.133-.801-.222-1.226-.264l-.075-.597.073-.538a6.65 6.65 0 0 1 1.174.202l.053 1.197zM15.859 39.491a5.52 5.52 0 0 0-1.31-.28l-.505-1.153a6.635 6.635 0 0 1 1.77.237l.045 1.196z" clip-rule="evenodd"/>
</svg>
